<svg height="200px" width="200px" version="1.1" id="Layer_1" xmlns="http://www.w3.org/2000/svg" xmlns:xlink="http://www.w3.org/1999/xlink" viewBox="0 0 512.00 512.00" xml:space="preserve" fill="#000000" transform="rotate(180)"><g id="SVGRepo_bgCarrier" stroke-width="0"></g><g id="SVGRepo_tracerCarrier" stroke-linecap="round" stroke-linejoin="round"></g><g id="SVGRepo_iconCarrier"> <path style="fill:#CFF09E;" d="M265.267,79.007l226.192,166.761c6.892,5.082,6.892,15.385,0,20.466L265.267,432.993 c-8.394,6.188-20.257,0.195-20.257-10.232V89.239C245.01,78.812,256.873,72.819,265.267,79.007z"></path> <path style="fill:#507C5C;" d="M500.581,233.396L274.388,66.635c-4.882-3.598-10.627-5.501-16.616-5.501 c-15.512,0-28.133,12.609-28.133,28.107v247.715H34.035c-1.817,0-3.294-1.477-3.294-3.294V178.338c0-1.817,1.477-3.294,3.294-3.294 H147.34c1.817,0,3.294,1.477,3.294,3.294v95.081c0,8.489,6.883,15.371,15.371,15.371s15.371-6.881,15.371-15.371v-95.081 c0-18.766-15.269-34.035-34.035-34.035H34.035C15.269,144.303,0,159.571,0,178.338v155.324c0,18.766,15.269,34.035,34.035,34.035 h195.606v55.064c0,15.498,12.621,28.107,28.133,28.107c5.988,0,11.734-1.903,16.617-5.503l226.19-166.759 c7.15-5.271,11.42-13.721,11.42-22.606C512.002,247.116,507.73,238.665,500.581,233.396z M260.381,417.498V94.5l219.055,161.498 L260.381,417.498z"></path> </g></svg>